<svg width="580" height="400" xmlns="http://www.w3.org/2000/svg">
 <!-- Created with Method Draw - http://github.com/duopixel/Method-Draw/ -->
 <g>
  <title>background</title>
  <rect fill="#fff" id="canvas_background" height="402" width="582" y="-1" x="-1"/>
 </g>
 <g>
  <title>Layer 1</title>
  <path d="m48.5,194.181824c1,0 3,0 8,0c5,0 9,0 13,0c6,0 11,0 16,0c5,0 10,0 15,0c6,0 10,0 16,0c5,0 10,-2 15,-2c6,0 10,0 16,0c3,0 8,0 12,0c5,0 9,-1 13,-1c4,0 9.01947,-0.60585 13,-1c5.074203,-0.502441 7.937958,-1.498291 14,-2c4.982956,-0.412399 9,0 13,0c4,0 9,0 13,0c4,0 8,0 12,0c3,0 6,0 8,0c3,0 4,0 7,0c2,0 5,0 7,0c2,0 4,0 8,0c2,0 6,0 8,0c3,0 4,0 7,0c2,0 3,0 7,0c2,0 4,0 8,0c2,0 6,0 8,0c4,0 6,0 8,0c3,0 5,0 8,0c3,0 7,0 11,0c4,0 9,0 13,0c3,0 8,0 12,0c3,0 7,0 11,0c3,0 7.014587,-0.295609 10,0c5.074219,0.502441 9,1 12,1c4,0 8,1 11,1c2,0 6,0 8,0c4,0 8,0 9,0c4,0 8.022491,-0.366547 11,0c4.092224,0.503769 8,1 11,1c2,0 5,0 7,0c1,0 3,0 5,0c2,0 5,0 6,0c3,0 5,0 8,0c2,0 4,0 6,0c1,0 4,0 6,0c2,0 5,0 7,0c3,0 3,0 4,0c2,0 3,0 4,0c0,0 1,0 1,0l1,0l0,0l1,0" id="svg_1" stroke-width="1.5" stroke="#000" fill="none"/>
 </g>
</svg>