<svg width="580" height="400" xmlns="http://www.w3.org/2000/svg">
 <!-- Created with Method Draw - http://github.com/duopixel/Method-Draw/ -->
 <g>
  <title>background</title>
  <rect fill="#fff" id="canvas_background" height="402" width="582" y="-1" x="-1"/>
 </g>
 <g>
  <title>Layer 1</title>
  <path d="m71.5,43.18182c0,0 0,3 0,5c0,2 -0.75563,3.014984 -1,5c-0.503777,4.092213 -4,10 -4,14.000004c0,3 -0.496223,4.907784 -1,9c-0.610916,4.96254 -2,9 -2,15c0,3 0,4 0,8c0,1 0,3 0,4c0,3 -0.52573,4.149345 0,5c1.175568,1.902115 3,2 6,3c3,1 5.041321,1.847229 9,3c3.036163,0.884132 6.907784,2.496223 11,3c3.970032,0.488731 10,0 15,0c9,0 12,0 21,0c5,0 12.942978,-1.118355 17,-3c6.908859,-3.204323 12.74675,-7.371346 17,-10c5.706345,-3.526711 8.445465,-3.447983 16,-10c1.068375,-0.926598 5.206802,-2.81266 7,-5c2.285873,-2.788322 3,-4 4,-5c1,-1 1.292892,-1.292892 2,-2c0.707108,-0.707108 0,-1 0,-2c0,-2 -1.70546,-3.346191 -4,-5c-1.813995,-1.307449 -4.902832,-3.224205 -7,-4c-3.867004,-1.430496 -6.769348,-2.303215 -8,-3c-3.587921,-2.031448 -7,-2 -8,-2c-2,0 -4,0 -8,0c-2,0 -3.863251,3.146812 -6,5c-3.777267,3.276009 -5.714127,6.211678 -8,9c-0.896591,1.093674 -2,4 -3,6c-1,2 -2.493454,3.878555 -3,7c-0.96109,5.922523 0,9 0,14c0,9 0,12 0,18c0,7 0,13 0,24c0,5 2.999832,10.596924 5,17c2.108368,6.749435 6,16 11,24c5,8 10,15 13,18c8,8 13.881378,13.293503 21,16c8.867554,3.371429 17.958466,5.499237 27,6c8.986221,0.497696 20,0 29,0c10,0 18.891724,-3.195755 26,-7c9.857422,-5.275528 15.780487,-8.800018 24,-15c5.645172,-4.258163 11,-11 14,-14c4,-4 6.723999,-9.222733 10,-13c3.70639,-4.273499 4.95517,-5.549149 6,-9c0.579559,-1.914185 1,-4 1,-7c0,-2 0.765381,-3.152237 0,-5c-1.082397,-2.613129 -3,-3 -5,-4c-2,-1 -4.878571,-1.493454 -8,-2c-2.961273,-0.480545 -6,0 -9,0c-4,0 -6,0 -9,0c-3,0 -4.448059,-1.577194 -7,0c-1.9021,1.175568 -2.540497,4.053497 -3,6c-0.513733,2.176254 -1.881348,6.025208 -3,11c-0.904572,4.022659 -1,9 -1,18c0,5 0,12 0,19c0,9 0.532898,18.219208 4,25c5.309113,10.383316 10.126862,18.617172 16,26c4.4021,5.533661 7.543579,6.40213 12,11c3.479889,3.590332 5.375366,5.940033 11,9c2.777802,1.5112 10.953796,4.207397 15,5c6.939178,1.359283 16,1 25,1c10,0 19,0 28,0c6,0 14.848572,-1.248322 18,-3c10.561218,-5.870331 14.592194,-6.371277 21,-13c4.450348,-4.60376 7.917542,-8.056641 10,-11c2.887848,-4.081696 5,-9 7,-13c3,-6 4.993988,-9.83551 6,-19c0.327362,-2.982086 0,-9 0,-15c0,-5 0,-11 0,-17c0,-4 -0.337494,-8.310013 -2,-11c-1.487,-2.406006 -2.881531,-3.190277 -6,-5c-1.93399,-1.122345 -4,-2 -6,-2c-4,0 -7,0 -10,0c-2,0 -6.718994,0.310211 -10,3c-2.78833,2.285873 -7.408936,7.776367 -10,13c-2.392975,4.82428 -3.824615,8.06134 -6,14c-1.852264,5.056595 -4.497559,8.925797 -5,14c-0.295624,2.985397 0,9 0,13c0,4 0.07193,7.953278 2,11c3.118103,4.927216 8.918304,7.112137 13,10c2.943359,2.082458 8.838074,5.465515 14,7c4.887634,1.452942 15.937958,3.498291 22,4c5.979553,0.494873 14,0 20,0c9,0 14.824158,-1.937103 22,-6c4.922607,-2.78714 8.192108,-5.192108 12,-9c3.807892,-3.807892 5.613831,-8.296997 8,-11c2.959686,-3.352661 4.548615,-8.769928 6,-13c1.654846,-4.823029 3,-10 4,-15c1,-5 1.881348,-12.025208 3,-17c0.904541,-4.022659 1,-9 1,-14c0,-5 0,-10 0,-17c0,-5 -1.523132,-12.682449 -5,-19c-4.748688,-8.628448 -9.403809,-16.72847 -14,-24c-5.500916,-8.702873 -11.729614,-15.228851 -16,-20c-4.715851,-5.268852 -10.849762,-7.701736 -16,-12c-3.838745,-3.203735 -7.076904,-5.731445 -11,-7c-5.123962,-1.656853 -13,-3 -19,-3c-7,0 -18.133759,-1.148766 -23,0c-8.705017,2.05497 -17.038574,9.116379 -22,16c-2.614899,3.627983 -5.094788,9.669952 -9,14c-3.348694,3.712982 -5.496216,6.907784 -6,11c-0.366547,2.977524 0,6 0,10c0,1 -0.765381,4.152237 0,6c1.082397,2.613129 3.761078,3.415894 7,5c2.840729,1.389359 7.041321,1.847229 11,3c3.036163,0.88414 7,1 13,1c4,0 8.746735,-0.371338 13,-3c1.9021,-1.175568 4.75531,-4.132004 7,-8c1.809723,-3.118484 3,-6 4,-11c1,-5 1.535278,-10.048141 1,-13c-1.524475,-8.406906 -7.439117,-12.5158 -13,-18c-6.564301,-6.473778 -12.127045,-9.678619 -15,-11c-10.595001,-4.873009 -12.111298,-6.645042 -19,-9c-10.191284,-3.483971 -12.834839,-4.689308 -24,-7c-6.924347,-1.433033 -15.864838,-1.995945 -27,-3.000004c-8.963623,-0.80825 -18,0 -30,0c-9,0 -18,0 -27,0c-9,0 -16.539368,2.181168 -26,9.000004c-7.479279,5.390762 -15.819336,11.249275 -24,21c-7.845566,9.351311 -14.215805,19.85981 -20,29c-6.236191,9.854431 -9.532394,20.169617 -13,29c-4.416565,11.246948 -7.002457,22.167099 -10,37c-2.258499,11.175827 -5.997086,22.885345 -7,36c-0.915009,11.965057 0,16 0,32c0,4 -1.655029,18.28186 0,23c2.119476,6.042175 9,11 14,15c5,4 12,7 21,9c9,2 20.83551,3.993988 30,5c8.946259,0.982056 20,0 27,0c7,0 14,-4 15,-5c4,-4 7.70575,-8.485046 9,-11c2.783356,-5.4086 3,-13 3,-17c0,-4 -1.228851,-7.729614 -6,-12c-5.26886,-4.715851 -13.817596,-10.438614 -23,-14c-8.844879,-3.430481 -19.864838,-6.995941 -31,-8c-10.955551,-0.987854 -20,-1 -26,-1c-16,0 -20,0 -29,0c-12,0 -18,0 -27,0c-8,0 -15.096603,-0.466263 -21,1c-9.207085,2.286819 -17.602905,8.21759 -23,13c-6.900299,6.11441 -12.150986,13.434631 -14,16c-2.923553,4.056213 -8.44841,8.805664 -10,13c-1.430496,3.867004 -1.88134,8.025208 -3,13c-0.904556,4.022644 -1,13 -1,15c0,9 0,12 0,21c0,4 0.761421,7.141846 5,14c3.7911,6.134125 7.178658,9.786377 12,14c4.390511,3.837097 6.886818,4.295471 17,8c2.96933,1.087677 13.946716,3.498749 21,4c8.977356,0.638 19,0 28,0c11,0 20,-3 29,-6c9,-3 18.132446,-6.628571 27,-10c7.118622,-2.706512 14.14183,-4.761414 21,-9c6.134125,-3.791107 14.091156,-5.795685 21,-9c6.085541,-2.822449 9.190735,-4.42215 13,-6c5.387085,-2.231415 7.21167,-3.714111 10,-6c1.093658,-0.896606 2,-1 3,-1l0,-1l1,0l0,0" id="svg_2" fill-opacity="null" stroke-opacity="null" stroke-width="1.5" stroke="#000" fill="none"/>
 </g>
</svg>