<svg width="580" height="400" xmlns="http://www.w3.org/2000/svg">
 <!-- Created with Method Draw - http://github.com/duopixel/Method-Draw/ -->
 <g>
  <title>background</title>
  <rect fill="#fff" id="canvas_background" height="402" width="582" y="-1" x="-1"/>
  <g display="none" overflow="visible" y="0" x="0" height="100%" width="100%" id="canvasGrid">
   <rect fill="url(#gridpattern)" stroke-width="0" y="0" x="0" height="100%" width="100%"/>
  </g>
 </g>
 <g>
  <title>Layer 1</title>
  <path d="m60.5,72.181824c0,3 0,10 0,17c0,9 0,21 0,30c0,13 0,25 0,39c0,11 0,14 0,26c0,7 0,18 0,21c0,11 -0.826046,16.168777 1,23c1.390675,5.202499 5.492943,9.234009 8,14c1.678558,3.190994 5.692383,7.410919 9,12c2.614906,3.627991 4.671371,7.497406 9,10c6.593178,3.811829 11.925797,6.497559 17,7c4.97567,0.492676 9,0 14,0c5,0 11.179184,1.021271 14,0c7.34375,-2.658813 10.389023,-8.655914 13,-12c3.58844,-4.595993 4.415894,-6.761078 6,-10c2.778702,-5.681442 5.95546,-9.365692 8,-19c0.622772,-2.934647 2.08075,-7.984528 3,-13c1.096603,-5.983093 2,-12 2,-17c0,-6 0.498291,-11.937958 1,-18c0.329926,-3.986374 -0.452942,-10.112366 1,-15c1.534485,-5.161911 1.847229,-8.041321 3,-12c0.88414,-3.036163 3.390991,-5.769516 7,-8c2.689987,-1.662506 4.07843,-2.789856 7,-4c2.065857,-0.855713 5,-1 6,-1c3,0 5,0 9,0c2,0 3,3 6,6c2,2 4.731445,7.076889 6,11c1.656845,5.123947 4.40712,11.077164 6,21c1.461273,9.102997 3,14 3,20c0,8 1,15 1,20c0,3 0.679642,7.025818 1,9c0.506546,3.121445 2,5 3,7c1,2 2.186005,3.692551 4,5c1.147263,0.826904 2.934143,3.144287 5,4c2.92157,1.210144 5.823746,2.486252 8,3c5.839493,1.378525 9.03746,0.610916 14,0c4.092224,-0.503769 9.504242,-5.035522 14,-8c7.083862,-4.671066 9.313873,-6.730515 17,-16c3.721893,-4.488602 5.045685,-10.977814 6,-13c4.203369,-8.906845 5.23172,-11.927673 7,-18c1.152771,-3.958679 2,-12 3,-17c1,-5 1.533752,-8.096603 3,-14c0.762268,-3.069031 0.968536,-7.412079 3,-11c0.696777,-1.230652 -0.031464,-4.412079 2,-8c0.696777,-1.230652 2.906342,-3.103409 4,-4c2.78833,-2.285873 5,-2 7,-3c2,-1 5,-1 7,-1c5,0 6.214539,-1.448914 11,0c3.450836,1.04483 6.77063,5.259354 9,7c4.595978,3.58844 7.75531,8.132004 10,12c3.619446,6.236954 6.467651,14.857391 9,24c2.460999,8.88501 3.488739,14.905167 5,24c1.484344,8.932892 2.806152,17.030441 4,24c0.860901,5.025818 1.359283,8.051651 2,12c0.506531,3.121445 1.839813,4.012909 2,5c0.506531,3.121445 2.186005,3.692551 4,5c2.294525,1.653809 3.292908,2.292892 4,3c1.414215,1.414215 4,1 5,1c3,0 5,0 7,0c1,0 2.664368,-2.955902 8,-9c3.309021,-3.748398 7.448395,-8.805649 9,-13c2.860992,-7.733994 3.793854,-15.057251 5,-19c3.424011,-11.192688 5.498749,-13.946716 6,-21c0.496216,-6.982391 0.216553,-12.137466 2,-20c0.699524,-3.083939 3.493469,-7.878555 4,-11c0.48056,-2.961258 0.877655,-7.06601 2,-9c1.809723,-3.118484 4.346191,-5.70546 6,-8c1.307465,-1.813995 3.705475,-2.346191 6,-4c1.813995,-1.307449 4,-2 5,-2c3,0 5,0 6,0c1,0 3.610657,0.159271 5,3c1.584106,3.238922 3,7 4,10c1,3 2,9 3,12c2,6 3.499237,11.958466 4,21c0.221191,3.993881 2.496216,12.907791 3,17c0.488739,3.970032 0.881348,8.025208 2,13c0.904572,4.022659 3.541351,7.702667 5,11c1.66803,3.770645 2.130646,8.128723 3,11c1.04483,3.450851 1.692535,6.186005 3,8c0.826904,1.147263 2,2 2,3l0,1l1,1" id="waves" stroke-width="1.5" stroke="#000" fill="none"/>
 </g>
</svg>
