<svg width="580" height="400" xmlns="http://www.w3.org/2000/svg">
 <!-- Created with Method Draw - http://github.com/duopixel/Method-Draw/ -->
 <g>
  <title>background</title>
  <rect fill="#fff" id="canvas_background" height="402" width="582" y="-1" x="-1"/>
  <g display="none" overflow="visible" y="0" x="0" height="100%" width="100%" id="canvasGrid">
   <rect fill="url(#gridpattern)" stroke-width="0" y="0" x="0" height="100%" width="100%"/>
  </g>
 </g>
 <g>
  <title>Layer 1</title>
  <path d="m49.5,158.181824c2,0 8.236637,-3.567276 14,-7c10.487282,-6.246353 15.597305,-10.527252 22,-15c17.997894,-12.572823 32.35363,-20.285561 43,-26c16.624557,-8.923225 25.096298,-19.512794 36,-25c8.474258,-4.26461 15.881516,-9.190281 19,-11.000004c3.867996,-2.244686 8.07843,-3.789848 11,-5c2.065857,-0.855705 3,-1 4,-1c0,0 1,0 1,0c0,4 -0.83194,11.477833 -5,20.000004c-6.336411,12.955688 -18.392624,27.364761 -33,51c-16.331543,26.425003 -33.044769,51.971634 -40,63c-15.097435,23.938828 -27.445869,41.096786 -37,58c-5.945618,10.519012 -10.106705,20.936737 -16,31c-4.07423,6.957062 -5.569504,13.132996 -7,17c-1.55159,4.194336 -4.486256,8.823761 -5,11c-0.689259,2.919739 0,3 0,4c0,0 0,1 0,1c0,0 6.217052,-1.652252 16,-8c10.239845,-6.644226 27.628517,-17.621368 49,-34c23.017792,-17.640335 48.79747,-44.16539 75,-70c28.740509,-28.33696 55.510971,-54.393524 79,-78c8.493439,-8.535904 28.131561,-27.921921 44,-42c13.318573,-11.815903 23.512726,-21.753651 34,-28.000004c3.842255,-2.288486 9.850769,-5.210056 14,-8c4.838806,-3.253607 8,-4 10,-5c2,-1 2,-1 3,-2c0,0 -1.224274,4.836605 -7,13c-10.412323,14.71677 -22.405121,31.357075 -34,50.000004c-7.616821,12.246796 -18.462463,30.301842 -31,52c-10.553894,18.265137 -25.855682,47.0979 -32,56c-9.77298,14.159409 -18.194092,29.88855 -21,35c-5.380081,9.800751 -8.102356,17.321396 -11,24c-2.320847,5.349182 -4.493454,9.878571 -5,13c-0.640732,3.948364 -1,7 -1,8c0,1 0,2 0,2c0,0 1.256577,1.581146 6,0c9.486832,-3.162292 18.445282,-17.577637 33,-31c19.296143,-17.794907 42.390991,-38.551926 86,-77c30.274597,-26.691727 65.526917,-58.458 82,-75c28.956604,-29.077751 37.745453,-39.245411 58,-60.000004c4.93866,-5.060589 15.384644,-16.660643 25,-25c3.777283,-3.276009 6,-6 9,-8c0,0 1,-1 1,-1c0,1 -0.059509,6.967649 -12,29c-7.035095,12.981033 -24.523743,39.311947 -43,67.000004c-17.552704,26.304047 -36.510681,57.28038 -51,82c-18.3862,31.367935 -34.336334,56.840012 -48,86c-5.126892,10.941437 -15.597382,32.642151 -19,39c-6.134155,11.461761 -9.64505,23.111298 -12,30c-1.741974,5.095642 -2.851959,10.228363 -4,13c-0.541199,1.306549 -1,2 -1,2c0,1 0.234009,1.50705 5,-1c9.572968,-5.035675 20.88974,-13.975739 36,-28c18.147125,-16.842834 41.457367,-38.556335 64,-60c20.51889,-19.518585 28.949341,-28.054474 44,-42c4.696838,-4.351974 12.589752,-12.44043 19,-18c3.777283,-3.276016 5,-4 7,-6c0,0 1,0 1,0c0,3 -4.085938,14.964859 -11,32c-8.100891,19.959335 -11.214874,31.894165 -20,50c-8.201782,16.903564 -11.060028,21.488068 -15,31c-2.78598,6.725952 -4.458801,10.693451 -5,12c-0.38269,0.923889 -0.707092,1.292908 0,2c0.707092,0.707092 6.868286,-0.288574 11,-2c5.84314,-2.420288 12,-6 21,-10l8,-3l18,-9" id="svg_1" stroke-width="1.5" stroke="#000" fill="none"/>
 </g>
</svg>